<svg width="200" height="60" viewBox="0 0 200 60" fill="none" xmlns="http://www.w3.org/2000/svg">
  <!-- 背景 -->
  <rect width="200" height="60" rx="8" fill="white"/>
  
  <!-- 房子图标 -->
  <g transform="translate(15, 10)">
    <path d="M34 40H6V22L20 10L34 22V40Z" fill="#3B82F6" stroke="#1D4ED8" stroke-width="2"/>
    <rect x="14" y="28" width="12" height="12" fill="white"/>
    <path d="M20 10L3 24H8V40H32V24H37L20 10Z" fill="#3B82F6" stroke="#1D4ED8" stroke-width="2"/>
  </g>
  
  <!-- 文字：East -->
  <path d="M60 25H75V29H65V32H73V36H65V39H75V43H60V25Z" fill="#1E40AF"/>
  <path d="M78 25H83C84.3333 25 85.5 25.2333 86.5 25.7C87.5 26.1667 88.2667 26.8333 88.8 27.7C89.3333 28.5667 89.6 29.6 89.6 30.8C89.6 32 89.3333 33.0333 88.8 33.9C88.2667 34.7667 87.5 35.4333 86.5 35.9C85.5 36.3667 84.3333 36.6 83 36.6H81V43H78V25ZM83 33.6C84 33.6 84.8 33.3667 85.4 32.9C86 32.4333 86.3 31.7333 86.3 30.8C86.3 29.8667 86 29.1667 85.4 28.7C84.8 28.2333 84 28 83 28H81V33.6H83Z" fill="#1E40AF"/>
<path d="M98.3 43.2C96.9667 43.2 95.7667 42.9333 94.7 42.4C93.6333 41.8667 92.8 41.1 92.2 40.1C91.6 39.0333 91.3 37.7667 91.3 36.3V25H94.3V36.3C94.3 37.5 94.6333 38.4333 95.3 39.1C95.9667 39.7667 96.8667 40.1 98 40.1C99.1333 40.1 100.033 39.7667 100.7 39.1C101.367 38.4333 101.7 37.5 101.7 36.3V25H104.7V36.3C104.7 37.7667 104.4 39.0333 103.8 40.1C103.2 41.1 102.367 41.8667 101.3 42.4C100.233 42.9333 99.0333 43.2 98.3 43.2Z" fill="#1E40AF"/>
<path d="M109.8 43V28H106V25H116.6V28H112.8V43H109.8Z" fill="#1E40AF"/>

  <!-- 文字：Home -->
  <path d="M120 37H123V31H130V37H133V25H130V28H123V25H120V37Z" fill="#2563EB"/>
  <path d="M140.5 37.2C139.167 37.2 137.983 36.9 136.95 36.3C135.917 35.7 135.117 34.8833 134.55 33.85C133.983 32.8167 133.7 31.6667 133.7 30.4C133.7 29.1333 133.983 27.9833 134.55 26.95C135.117 25.9167 135.917 25.1 136.95 24.5C137.983 23.9 139.167 23.6 140.5 23.6C141.833 23.6 143.017 23.9 144.05 24.5C145.083 25.1 145.883 25.9167 146.45 26.95C147.017 27.9833 147.3 29.1333 147.3 30.4C147.3 31.6667 147.017 32.8167 146.45 33.85C145.883 34.8833 145.083 35.7 144.05 36.3C143.017 36.9 141.833 37.2 140.5 37.2ZM140.5 34.2C141.633 34.2 142.533 33.85 143.2 33.15C143.867 32.45 144.2 31.5333 144.2 30.4C144.2 29.2667 143.867 28.35 143.2 27.65C142.533 26.95 141.633 26.6 140.5 26.6C139.367 26.6 138.467 26.95 137.8 27.65C137.133 28.35 136.8 29.2667 136.8 30.4C136.8 31.5333 137.133 32.45 137.8 33.15C138.467 33.85 139.367 34.2 140.5 34.2Z" fill="#2563EB"/>
  <path d="M154.5 37.2C153.167 37.2 151.983 36.9 150.95 36.3C149.917 35.7 149.117 34.8833 148.55 33.85C147.983 32.8167 147.7 31.6667 147.7 30.4C147.7 29.1333 147.983 27.9833 148.55 26.95C149.117 25.9167 149.917 25.1 150.95 24.5C151.983 23.9 153.167 23.6 154.5 23.6C155.833 23.6 157.017 23.9 158.05 24.5C159.083 25.1 159.883 25.9167 160.45 26.95C161.017 27.9833 161.3 29.1333 161.3 30.4C161.3 31.6667 161.017 32.8167 160.45 33.85C159.883 34.8833 159.083 35.7 158.05 36.3C157.017 36.9 155.833 37.2 154.5 37.2ZM154.5 34.2C155.633 34.2 156.533 33.85 157.2 33.15C157.867 32.45 158.2 31.5333 158.2 30.4C158.2 29.2667 157.867 28.35 157.2 27.65C156.533 26.95 155.633 26.6 154.5 26.6C153.367 26.6 152.467 26.95 151.8 27.65C151.133 28.35 150.8 29.2667 150.8 30.4C150.8 31.5333 151.133 32.45 151.8 33.15C152.467 33.85 153.367 34.2 154.5 34.2Z" fill="#2563EB"/>
  <path d="M166.6 37V33.6L172.3 26.6H166.9V23.8H176.2V27.2L170.5 34.2H176.2V37H166.6Z" fill="#2563EB"/>
  
  <!-- 社区文字 -->
  <path d="M132 50C130.9 50 129.933 49.7333 129.1 49.2C128.267 48.6667 127.633 47.9333 127.2 47C126.767 46.0667 126.55 45 126.55 43.8C126.55 42.6 126.767 41.5333 127.2 40.6C127.633 39.6667 128.267 38.9333 129.1 38.4C129.933 37.8667 130.9 37.6 132 37.6C132.9 37.6 133.7 37.8 134.4 38.2C135.1 38.6 135.65 39.15 136.05 39.85L134.5 40.9C134.233 40.4333 133.883 40.0667 133.45 39.8C133.017 39.5333 132.533 39.4 132 39.4C131.367 39.4 130.8 39.5667 130.3 39.9C129.8 40.2333 129.417 40.7 129.15 41.3C128.883 41.9 128.75 42.6 128.75 43.4C128.75 44.2 128.883 44.9 129.15 45.5C129.417 46.1 129.8 46.5667 130.3 46.9C130.8 47.2333 131.367 47.4 132 47.4C132.533 47.4 133.017 47.2667 133.45 47C133.883 46.7333 134.233 46.3667 134.5 45.9L136.05 46.95C135.65 47.65 135.1 48.2 134.4 48.6C133.7 49 132.9 49.2 132 49.2V50ZM132 50C130.767 50 129.683 49.7 128.75 49.1C127.817 48.5 127.083 47.6833 126.55 46.65C126.017 45.6167 125.75 44.4333 125.75 43.1C125.75 41.7667 126.017 40.5833 126.55 39.55C127.083 38.5167 127.817 37.7 128.75 37.1C129.683 36.5 130.767 36.2 132 36.2C133.233 36.2 134.317 36.5 135.25 37.1C136.183 37.7 136.917 38.5167 137.45 39.55C137.983 40.5833 138.25 41.7667 138.25 43.1C138.25 44.4333 137.983 45.6167 137.45 46.65C136.917 47.6833 136.183 48.5 135.25 49.1C134.317 49.7 133.233 50 132 50Z" fill="#4B5563"/>
  <path d="M146.384 50V36.4H148.484V42.1H155.284V36.4H157.384V50H155.284V44.1H148.484V50H146.384Z" fill="#4B5563"/>
  <path d="M166.491 50.2C165.158 50.2 163.974 49.9 162.941 49.3C161.908 48.7 161.108 47.8833 160.541 46.85C159.974 45.8167 159.691 44.6667 159.691 43.4C159.691 42.1333 159.974 40.9833 160.541 39.95C161.108 38.9167 161.908 38.1 162.941 37.5C163.974 36.9 165.158 36.6 166.491 36.6C167.824 36.6 169.008 36.9 170.041 37.5C171.074 38.1 171.874 38.9167 172.441 39.95C173.008 40.9833 173.291 42.1333 173.291 43.4C173.291 44.6667 173.008 45.8167 172.441 46.85C171.874 47.8833 171.074 48.7 170.041 49.3C169.008 49.9 167.824 50.2 166.491 50.2ZM166.491 48.2C167.424 48.2 168.241 47.9833 168.941 47.55C169.641 47.1167 170.174 46.5167 170.541 45.75C170.908 44.9833 171.091 44.1333 171.091 43.2C171.091 42.2667 170.908 41.4167 170.541 40.65C170.174 39.8833 169.641 39.2833 168.941 38.85C168.241 38.4167 167.424 38.2 166.491 38.2C165.558 38.2 164.741 38.4167 164.041 38.85C163.341 39.2833 162.808 39.8833 162.441 40.65C162.074 41.4167 161.891 42.2667 161.891 43.2C161.891 44.1333 162.074 44.9833 162.441 45.75C162.808 46.5167 163.341 47.1167 164.041 47.55C164.741 47.9833 165.558 48.2 166.491 48.2Z" fill="#4B5563"/>
  <path d="M175.098 50V36.4H177.198V48H183.498V50H175.098Z" fill="#4B5563"/>
  <path d="M190.105 50.2C188.771 50.2 187.588 49.9 186.555 49.3C185.521 48.7 184.721 47.8833 184.155 46.85C183.588 45.8167 183.305 44.6667 183.305 43.4C183.305 42.1333 183.588 40.9833 184.155 39.95C184.721 38.9167 185.521 38.1 186.555 37.5C187.588 36.9 188.771 36.6 190.105 36.6C191.438 36.6 192.621 36.9 193.655 37.5C194.688 38.1 195.488 38.9167 196.055 39.95C196.621 40.9833 196.905 42.1333 196.905 43.4C196.905 44.6667 196.621 45.8167 196.055 46.85C195.488 47.8833 194.688 48.7 193.655 49.3C192.621 49.9 191.438 50.2 190.105 50.2ZM190.105 48.2C191.038 48.2 191.855 47.9833 192.555 47.55C193.255 47.1167 193.788 46.5167 194.155 45.75C194.521 44.9833 194.705 44.1333 194.705 43.2C194.705 42.2667 194.521 41.4167 194.155 40.65C193.788 39.8833 193.255 39.2833 192.555 38.85C191.855 38.4167 191.038 38.2 190.105 38.2C189.171 38.2 188.355 38.4167 187.655 38.85C186.955 39.2833 186.421 39.8833 186.055 40.65C185.688 41.4167 185.505 42.2667 185.505 43.2C185.505 44.1333 185.688 44.9833 186.055 45.75C186.421 46.5167 186.955 47.1167 187.655 47.55C188.355 47.9833 189.171 48.2 190.105 48.2Z" fill="#4B5563"/>
</svg> 